<svg width="20" height="21" viewBox="0 0 20 21" fill="none" xmlns="http://www.w3.org/2000/svg">
<g id="delete">
<mask id="mask0_2762_7743" style="mask-type:alpha" maskUnits="userSpaceOnUse" x="0" y="0" width="20" height="21">
<rect id="Bounding box" y="0.5" width="20" height="20" fill="#D9D9D9"/>
</mask>
<g mask="url(#mask0_2762_7743)">
<path id="delete_2" d="M6.5 17.5C6.0875 17.5 5.73438 17.3531 5.44062 17.0594C5.14687 16.7656 5 16.4125 5 16V6H4.75C4.5375 6 4.35938 5.92855 4.21563 5.78565C4.07188 5.64273 4 5.46565 4 5.2544C4 5.04313 4.07188 4.86458 4.21563 4.71875C4.35938 4.57292 4.5375 4.5 4.75 4.5H8V4.25C8 4.0375 8.07188 3.85937 8.21563 3.71562C8.35938 3.57187 8.5375 3.5 8.75 3.5H11.25C11.4625 3.5 11.6406 3.57187 11.7844 3.71562C11.9281 3.85937 12 4.0375 12 4.25V4.5H15.25C15.4625 4.5 15.6406 4.57145 15.7844 4.71435C15.9281 4.85727 16 5.03435 16 5.2456C16 5.45687 15.9281 5.63542 15.7844 5.78125C15.6406 5.92708 15.4625 6 15.25 6H15V15.991C15 16.4137 14.8531 16.7708 14.5594 17.0625C14.2656 17.3542 13.9125 17.5 13.5 17.5H6.5ZM13.5 6H6.5V16H13.5V6ZM8.7456 14.5C8.95687 14.5 9.13542 14.4281 9.28125 14.2844C9.42708 14.1406 9.5 13.9625 9.5 13.75V8.25C9.5 8.0375 9.42855 7.85938 9.28565 7.71562C9.14273 7.57187 8.96565 7.5 8.7544 7.5C8.54313 7.5 8.36458 7.57187 8.21875 7.71562C8.07292 7.85938 8 8.0375 8 8.25V13.75C8 13.9625 8.07145 14.1406 8.21435 14.2844C8.35727 14.4281 8.53435 14.5 8.7456 14.5ZM11.2456 14.5C11.4569 14.5 11.6354 14.4281 11.7812 14.2844C11.9271 14.1406 12 13.9625 12 13.75V8.25C12 8.0375 11.9285 7.85938 11.7856 7.71562C11.6427 7.57187 11.4656 7.5 11.2544 7.5C11.0431 7.5 10.8646 7.57187 10.7188 7.71562C10.5729 7.85938 10.5 8.0375 10.5 8.25V13.75C10.5 13.9625 10.5715 14.1406 10.7144 14.2844C10.8573 14.4281 11.0344 14.5 11.2456 14.5Z" fill="#1C1B1F"/>
</g>
</g>
</svg>
