<svg width="20" height="20" viewBox="0 0 20 20" fill="none" xmlns="http://www.w3.org/2000/svg">
<g id="upload">
<mask id="mask0_2734_6243" style="mask-type:alpha" maskUnits="userSpaceOnUse" x="0" y="0" width="20" height="20">
<rect id="Bounding box" width="20" height="20" fill="#D9D9D9"/>
</mask>
<g mask="url(#mask0_2734_6243)">
<path id="upload_2" d="M5.4941 16C5.08137 16 4.72917 15.8531 4.4375 15.5594C4.14583 15.2656 4 14.9125 4 14.5V13.75C4 13.5375 4.07145 13.3594 4.21435 13.2156C4.35727 13.0719 4.53435 13 4.7456 13C4.95687 13 5.13542 13.0719 5.28125 13.2156C5.42708 13.3594 5.5 13.5375 5.5 13.75V14.5H14.5V13.75C14.5 13.5375 14.5715 13.3594 14.7144 13.2156C14.8573 13.0719 15.0344 13 15.2456 13C15.4569 13 15.6354 13.0719 15.7812 13.2156C15.9271 13.3594 16 13.5375 16 13.75V14.5C16 14.9125 15.853 15.2656 15.5591 15.5594C15.2652 15.8531 14.9119 16 14.4992 16H5.4941ZM9.25 5.875L7.58333 7.54167C7.43056 7.69444 7.25347 7.77083 7.05208 7.77083C6.85069 7.77083 6.67029 7.69444 6.51088 7.54167C6.36474 7.38889 6.29167 7.21181 6.29167 7.01042C6.29167 6.80903 6.36806 6.63194 6.52083 6.47917L9.47917 3.52083C9.55417 3.45139 9.63542 3.39931 9.72292 3.36458C9.81042 3.32986 9.90417 3.3125 10.0042 3.3125C10.1042 3.3125 10.1979 3.32986 10.2854 3.36458C10.3729 3.39931 10.4514 3.45139 10.5208 3.52083L13.4792 6.47917C13.6319 6.63194 13.7083 6.80556 13.7083 7C13.7083 7.19444 13.6353 7.36806 13.4891 7.52083C13.3297 7.67361 13.1493 7.75 12.9479 7.75C12.7465 7.75 12.5694 7.67361 12.4167 7.52083L10.75 5.875V12.25C10.75 12.4625 10.6785 12.6406 10.5356 12.7844C10.3927 12.9281 10.2156 13 10.0044 13C9.79313 13 9.61458 12.9281 9.46875 12.7844C9.32292 12.6406 9.25 12.4625 9.25 12.25V5.875Z" fill="white"/>
</g>
</g>
</svg>
